<svg width="25" height="25" viewBox="0 0 25 25" fill="none" xmlns="http://www.w3.org/2000/svg">
<g clip-path="url(#clip0_409_10)">
<path d="M22.9167 2.77783H2.08333C0.93316 2.77783 0 3.71099 0 4.86117V5.55561H25V4.86117C25 3.71099 24.0668 2.77783 22.9167 2.77783ZM0 20.1389C0 21.2891 0.93316 22.2223 2.08333 22.2223H22.9167C24.0668 22.2223 25 21.2891 25 20.1389V6.9445H0V20.1389ZM15.2778 10.0695C15.2778 9.87853 15.434 9.72228 15.625 9.72228H21.875C22.066 9.72228 22.2222 9.87853 22.2222 10.0695V10.7639C22.2222 10.9549 22.066 11.1112 21.875 11.1112H15.625C15.434 11.1112 15.2778 10.9549 15.2778 10.7639V10.0695ZM15.2778 12.8473C15.2778 12.6563 15.434 12.5001 15.625 12.5001H21.875C22.066 12.5001 22.2222 12.6563 22.2222 12.8473V13.5417C22.2222 13.7327 22.066 13.8889 21.875 13.8889H15.625C15.434 13.8889 15.2778 13.7327 15.2778 13.5417V12.8473ZM15.2778 15.6251C15.2778 15.4341 15.434 15.2778 15.625 15.2778H21.875C22.066 15.2778 22.2222 15.4341 22.2222 15.6251V16.3195C22.2222 16.5105 22.066 16.6667 21.875 16.6667H15.625C15.434 16.6667 15.2778 16.5105 15.2778 16.3195V15.6251ZM7.63889 9.72228C9.17101 9.72228 10.4167 10.9679 10.4167 12.5001C10.4167 14.0322 9.17101 15.2778 7.63889 15.2778C6.10677 15.2778 4.86111 14.0322 4.86111 12.5001C4.86111 10.9679 6.10677 9.72228 7.63889 9.72228ZM2.91233 18.5851C3.27691 17.4697 4.32292 16.6667 5.55556 16.6667H5.91146C6.44531 16.8881 7.02691 17.0139 7.63889 17.0139C8.25087 17.0139 8.83681 16.8881 9.36632 16.6667H9.72222C10.9549 16.6667 12.0009 17.4697 12.3655 18.5851C12.5043 19.0148 12.1398 19.4445 11.6884 19.4445H3.58941C3.13802 19.4445 2.77344 19.0105 2.91233 18.5851Z" fill="#B4111A"/>
</g>
<defs>
<clipPath id="clip0_409_10">
<rect width="25" height="25" fill="white"/>
</clipPath>
</defs>
</svg>
