<svg width="26" height="26" viewBox="0 0 26 26" fill="none" xmlns="http://www.w3.org/2000/svg">
<g clip-path="url(#clip0_409_7)">
<path d="M0.862061 6.86583V21.8971C0.862061 22.3884 1.35815 22.7243 1.81432 22.542L7.8065 19.8146V3.14795L1.73532 5.57633C1.47759 5.67942 1.25665 5.85736 1.101 6.0872C0.945346 6.31704 0.862122 6.58824 0.862061 6.86583ZM9.19539 19.8146L17.5287 22.5924V5.92573L9.19539 3.14795V19.8146ZM24.9098 3.1983L18.9176 5.92573V22.5924L24.9888 20.164C25.2466 20.061 25.4675 19.883 25.6232 19.6532C25.7789 19.4233 25.8621 19.1521 25.8621 18.8745V3.84326C25.8621 3.35194 25.366 3.016 24.9098 3.1983Z" fill="#B4111A"/>
</g>
<defs>
<clipPath id="clip0_409_7">
<rect width="25" height="25" fill="white" transform="translate(0.862061 0.370117)"/>
</clipPath>
</defs>
</svg>
