<svg width="26" height="26" viewBox="0 0 26 26" fill="none" xmlns="http://www.w3.org/2000/svg">
<g clip-path="url(#clip0_409_3)">
<path d="M8.0752 13.2373C10.4932 13.2373 12.4502 11.2803 12.4502 8.8623C12.4502 6.44434 10.4932 4.4873 8.0752 4.4873C5.65723 4.4873 3.7002 6.44434 3.7002 8.8623C3.7002 11.2803 5.65723 13.2373 8.0752 13.2373ZM11.0752 14.4873H10.751C9.93848 14.8779 9.03613 15.1123 8.0752 15.1123C7.11426 15.1123 6.21582 14.8779 5.39941 14.4873H5.0752C2.59082 14.4873 0.575195 16.5029 0.575195 18.9873V20.1123C0.575195 21.1475 1.41504 21.9873 2.4502 21.9873H13.7002C14.7354 21.9873 15.5752 21.1475 15.5752 20.1123V18.9873C15.5752 16.5029 13.5596 14.4873 11.0752 14.4873ZM19.3252 13.2373C21.3955 13.2373 23.0752 11.5576 23.0752 9.4873C23.0752 7.41699 21.3955 5.7373 19.3252 5.7373C17.2549 5.7373 15.5752 7.41699 15.5752 9.4873C15.5752 11.5576 17.2549 13.2373 19.3252 13.2373ZM21.2002 14.4873H21.0518C20.5088 14.6748 19.9346 14.7998 19.3252 14.7998C18.7158 14.7998 18.1416 14.6748 17.5986 14.4873H17.4502C16.6533 14.4873 15.9189 14.7178 15.2744 15.0889C16.2275 16.1162 16.8252 17.4795 16.8252 18.9873V20.4873C16.8252 20.5732 16.8057 20.6553 16.8018 20.7373H23.7002C24.7354 20.7373 25.5752 19.8975 25.5752 18.8623C25.5752 16.4443 23.6182 14.4873 21.2002 14.4873Z" fill="#B4111A"/>
</g>
<defs>
<clipPath id="clip0_409_3">
<rect width="25" height="25" fill="white" transform="translate(0.575195 0.737305)"/>
</clipPath>
</defs>
</svg>
